<svg viewBox="0 0 282 66" fill="none">
  <path fill="#fff" d="M197 14h60v38h-60z" />
  <path d="M243.83.38h-53.28v65.35h53.28l37.89-32.68L243.83.38zM230.2 50.52l-2-5.92h-11.4l-2 5.92h-15.52l12.17-34.95h22.08l12.18 34.95H230.2zM247.83 31a7.662 7.662 0 01-7.513-9.154 7.658 7.658 0 0110.444-5.583 7.661 7.661 0 012.485 12.493A7.657 7.657 0 01247.83 31z" fill="#82BC00" />
  <path d="M248.88 19.09h-2.11v3.15h-3.14v2.11h3.14v3.14h2.11v-3.14h3.14v-2.11h-3.14v-3.15z" fill="#000002" />
  <path d="M222.44 27.81l-2.82 8.54h5.73l-2.82-8.54h-.09z" fill="#80BB42" />
  <path d="M43.49 15.55L32 48.48l-.71 2h15.54l2-5.93H60.2l2 5.93h15.52l-12.18-35-22.05.07zm8.18 20.79l2.82-8.54h.1l2.81 8.54h-5.73zM111.21 32.82c3.53-2 4.56-4.64 4.56-7.51 0-4-2.26-9.76-13.59-9.76H80.26v35h24.45c8.19 0 12-4.28 12-9.67.01-3.03-1.08-5.71-5.5-8.06zM95.78 22.59h.94c3.16 0 4.1 1.46 4.1 3.38 0 2.48-1.27 3.42-4.66 3.42h-.38v-6.8zm.46 20.23h-.46v-7.56h1.08c3.25 0 4.32 1.65 4.32 3.95 0 2.63-1.36 3.61-4.94 3.61zM119.97 50.53h29.1v-8.79h-13.59v-4.32h9.46v-8.77h-9.46v-4.32h13.59v-8.78h-29.1v34.98zM168.19 15.55h-15.53v34.98h29.12v-8.79h-13.59V15.55zM15.32 15.55H-.2v34.98h29.11v-8.79H15.32V15.55z" fill="#fff" />
  <path d="M252 24.35h-3.15v3.14h-2.11v-3.14h-3.14v-2.11h3.14v-3.15h2.11v3.15H252v2.11z" fill="#82BC00" />
</svg>
